<?xml version="1.0" encoding="UTF-8"?><svg id="b" xmlns="http://www.w3.org/2000/svg" width="351.63" height="1053.52" viewBox="0 0 351.63 1053.52"><defs><style>.g{fill:none;stroke:#400903;stroke-linecap:round;stroke-linejoin:round;stroke-width:5px;}</style></defs><g id="c"><path id="d" class="g" d="m154.28,113.02c-21,29,42,136,63,179,20.47,41.92-72.42,234.37-72,281.5.5,55.87,59,185.5,115,250.5,47.63,47.63-10,177.5-16.35,186.56-10.42,16.48-28.18,27.44-49.15,27.44-32.86,0-59.45-26.87-58.99-59.84.44-31.5,26.07-57.39,57.56-58.14,20.53-.49,38.75,9.51,49.68,25.01,0,0,12.25,18.47,12.25,39.47v66m40.26-509.42c-14.09,3.21-15.64,3.4-22.35,4.09-12.59,1.3-42.9-11.42-72.42-9.07-29.52,2.35-52.61,38.92-53.66,42.08,2.41,2.3,40,23.7,67.15,11.88,27.15-11.82,47.91-37.32,59.64-42.08,6.25-2.54,7.71-3.11,21.65-6.91ZM24.36,623.89c12.41-2.5,43.79,7.32,72.96,2.19,29.17-5.13,48.7-43.71,49.45-46.96-2.62-2.06-42.05-19.82-67.97-5.49-25.92,14.33-44.18,41.66-55.4,47.52-5.98,3.12-7.38,3.83-20.9,8.92,13.72-4.53,15.25-4.85,21.86-6.18Zm316.47-305.84c-11.62.06-12.87-.06-18.26-.69-10.11-1.18-31.68-16.45-55.27-19.76-23.58-3.31-48.1,21.37-49.47,23.66,1.49,2.22,27.26,25.59,50.64,21.05,23.38-4.54,44.12-20.93,54.16-22.62,5.35-.9,6.59-1.1,18.2-1.64Zm-226.74-28.31c9.21,4.34,24.77,25.71,46.06,36.38,21.29,10.67,52.4-4.88,54.44-6.62-.7-2.58-17.66-32.95-41.26-36.12-23.6-3.17-48.5,5.73-58.55,4.13-5.36-.85-6.6-1.07-17.77-4.26,11.03,3.65,12.18,4.18,17.08,6.49Zm97.18-181.75c-5.97,2.71-6.65,2.93-9.57,3.85-5.48,1.72-20.12-1.18-33.03,2.54s-19.86,22.09-20.04,23.59c1.28.8,19.94,6.91,30.94-.81,11-7.72,17.92-20.95,22.7-24.13,2.55-1.7,3.14-2.08,9-5.04Zm-106.92-8.52c3.66,4.43,6.47,19.09,14.78,29.65s27.94,10.1,29.4,9.7c.26-1.49-1.1-21.07-12.39-28.37s-26.14-8.73-30.9-11.96c-2.53-1.72-3.11-2.13-8.05-6.45,4.76,4.52,5.21,5.06,7.17,7.42Z"/><path id="e" class="g" d="m109.72,17.52c-15.75,29,120.69,106.02,146.75,192,20.91,69-142.07,295.37-141.75,342.5.37,55.87,124.66,121.5,156.66,206.5,23.92,63.53-22.88,243.5-29.23,252.56-10.42,16.48-28.18,27.44-49.15,27.44-32.86,0-59.45-26.87-58.99-59.84.44-31.5,26.07-57.39,57.56-58.14,20.53-.49,38.75,9.51,49.68,25.01,0,0,12.25,18.47,12.25,39.47v66m-26.08-531.42c-10.56,3.21-11.73,3.4-16.76,4.09-9.44,1.3-32.18-11.42-54.32-9.07-22.14,2.35-39.46,38.92-40.24,42.08,1.81,2.3,30,23.7,50.36,11.88,20.37-11.82,35.93-37.32,44.73-42.08,4.68-2.54,5.78-3.11,16.23-6.91Zm-203.38,82.79c9.31-2.5,32.84,7.32,54.72,2.19,21.88-5.13,36.53-43.71,37.09-46.96-1.96-2.06-31.54-19.82-50.98-5.49-19.44,14.33-33.14,41.66-41.55,47.52-4.48,3.12-5.53,3.83-15.67,8.92,10.29-4.53,11.44-4.85,16.4-6.18ZM349.13,235.55c-8.71.06-9.65-.06-13.69-.69-7.58-1.18-23.76-16.45-41.45-19.76-17.69-3.31-36.07,21.37-37.1,23.66,1.12,2.22,20.44,25.59,37.98,21.05,17.53-4.54,33.09-20.93,40.62-22.62,4.01-.9,4.94-1.1,13.65-1.64Zm-170.05-28.31c6.91,4.34,18.58,25.71,34.54,36.38,15.97,10.67,39.3-4.88,40.83-6.62-.53-2.58-13.24-32.95-30.94-36.12-17.7-3.17-36.37,5.73-43.91,4.13-4.02-.85-4.95-1.07-13.33-4.26,8.27,3.65,9.13,4.18,12.81,6.49ZM156.63,2.5c-3.79,3.61-4.24,3.94-6.18,5.3-3.65,2.57-14.99,2.09-23.65,7.81-8.66,5.72-9.8,24.78-9.61,26.27,1.11.58,16.09,3.53,22.49-5.78,6.4-9.32,8.62-23.35,11.44-27.23,1.5-2.07,1.86-2.54,5.51-6.37Zm-80.15,8.92c3.63,3.73,8.84,17.6,17.2,26.58s22.63,5.36,23.62,4.74c-.13-1.5-5.33-20.4-15.17-25.71-9.84-5.3-21.03-4.31-25.2-6.7-2.22-1.27-2.74-1.58-7.28-5,4.45,3.64,4.91,4.1,6.84,6.09Z"/><path id="f" class="g" d="m159.59,403.02c-15.75,29,15,72,30.75,115,15.35,41.92-22.07,132.37-21.75,179.5.37,55.87,35.78,61.5,91.78,126.5,47.63,47.63-10,177.5-16.35,186.56-10.42,16.48-28.18,27.44-49.15,27.44-32.86,0-59.45-26.87-58.99-59.84.44-31.5,26.07-57.39,57.56-58.14,20.53-.49,38.75,9.51,49.68,25.01,0,0,12.25,18.47,12.25,39.47v66m25.92-385.42c-10.56,3.21-11.73,3.4-16.76,4.09-9.44,1.3-32.18-11.42-54.32-9.07-22.14,2.35-39.46,38.92-40.24,42.08,1.81,2.3,30,23.7,50.36,11.88,20.37-11.82,35.93-37.32,44.73-42.08,4.68-2.54,5.78-3.11,16.23-6.91Zm-203.38,82.79c9.31-2.5,32.84,7.32,54.72,2.19,21.88-5.13,36.53-43.71,37.09-46.96-1.96-2.06-31.54-19.82-50.98-5.49-19.44,14.33-33.14,41.66-41.55,47.52-4.48,3.12-5.53,3.83-15.67,8.92,10.29-4.53,11.44-4.85,16.4-6.18Zm205.1-203.84c-8.71.06-9.65-.06-13.69-.69-7.58-1.18-23.76-16.45-41.45-19.76-17.69-3.31-36.07,21.37-37.1,23.66,1.12,2.22,20.44,25.59,37.98,21.05,17.53-4.54,33.09-20.93,40.62-22.62,4.01-.9,4.94-1.1,13.65-1.64Zm-170.05-28.31c6.91,4.34,18.58,25.71,34.54,36.38,15.97,10.67,39.3-4.88,40.83-6.62-.53-2.58-13.24-32.95-30.94-36.12-17.7-3.17-36.37,5.73-43.91,4.13-4.02-.85-4.95-1.07-13.33-4.26,8.27,3.65,9.13,4.18,12.81,6.49Zm89.39-117.75c-4.48,2.71-4.99,2.93-7.18,3.85-4.11,1.72-15.09-1.18-24.78,2.54s-14.9,22.09-15.03,23.59c.96.8,14.96,6.91,23.21-.81,8.25-7.72,13.44-20.95,17.03-24.13,1.91-1.7,2.36-2.08,6.75-5.04Zm-80.19-8.52c2.75,4.43,4.85,19.09,11.08,29.65s20.95,10.1,22.05,9.7c.2-1.49-.82-21.07-9.29-28.37-8.47-7.29-19.61-8.73-23.17-11.96-1.9-1.72-2.34-2.13-6.04-6.45,3.57,4.52,3.91,5.06,5.37,7.42Z"/></g></svg>