<?xml version="1.0" encoding="UTF-8"?>
<svg id="b" data-name="Layer 2" xmlns="http://www.w3.org/2000/svg" viewBox="0 0 226.5 673.46">
  <defs>
    <style>
      .d {
        fill: none;
        stroke: #400903;
        stroke-linecap: round;
        stroke-linejoin: round;
        stroke-width: 5px;
      }
    </style>
  </defs>
  <g id="c" data-name="Layer 4">
    <path class="d" d="m100.59,23.46c-15.75,29,15,72,30.75,115,15.35,41.92-22.07,132.37-21.75,179.5.37,55.87,35.78,61.5,91.78,126.5,47.63,47.63-10,177.5-16.35,186.56-10.42,16.48-28.18,27.44-49.15,27.44-32.86,0-59.45-26.87-58.99-59.84.44-31.5,26.07-57.39,57.56-58.14,20.53-.49,38.75,9.51,49.68,25.01,0,0,12.25,18.47,12.25,39.47v66m25.92-385.42c-10.56,3.21-11.73,3.4-16.76,4.09-9.44,1.3-32.18-11.42-54.32-9.07-22.14,2.35-39.46,38.92-40.24,42.08,1.81,2.3,30,23.7,50.36,11.88,20.37-11.82,35.93-37.32,44.73-42.08,4.68-2.54,5.78-3.11,16.23-6.91ZM18.9,368.33c9.31-2.5,32.84,7.32,54.72,2.19,21.88-5.13,36.53-43.71,37.09-46.96-1.96-2.06-31.54-19.82-50.98-5.49-19.44,14.33-33.14,41.66-41.55,47.52-4.48,3.12-5.53,3.83-15.67,8.92,10.29-4.53,11.44-4.85,16.4-6.18Zm205.1-203.84c-8.71.06-9.65-.06-13.69-.69-7.58-1.18-23.76-16.45-41.45-19.76-17.69-3.31-36.07,21.37-37.1,23.66,1.12,2.22,20.44,25.59,37.98,21.05,17.53-4.54,33.09-20.93,40.62-22.62,4.01-.9,4.94-1.1,13.65-1.64Zm-170.05-28.31c6.91,4.34,18.58,25.71,34.54,36.38,15.97,10.67,39.3-4.88,40.83-6.62-.53-2.58-13.24-32.95-30.94-36.12-17.7-3.17-36.37,5.73-43.91,4.13-4.02-.85-4.95-1.07-13.33-4.26,8.27,3.65,9.13,4.18,12.81,6.49ZM143.33,18.43c-4.48,2.71-4.99,2.93-7.18,3.85-4.11,1.72-15.09-1.18-24.78,2.54s-14.9,22.09-15.03,23.59c.96.8,14.96,6.91,23.21-.81,8.25-7.72,13.44-20.95,17.03-24.13,1.91-1.7,2.36-2.08,6.75-5.04ZM63.14,9.92c2.75,4.43,4.85,19.09,11.08,29.65s20.95,10.1,22.05,9.7c.2-1.49-.82-21.07-9.29-28.37-8.47-7.29-19.61-8.73-23.17-11.96-1.9-1.72-2.34-2.13-6.04-6.45,3.57,4.52,3.91,5.06,5.37,7.42Z"/>
  </g>
</svg>